# xmcd
#
# Track frame offsets: 
#        150
#        11000
#        27422
#        37395
#        52706
#        66638
#        75868
#        81655
#        95521
#        106632
#        114246
#        142789
#        158765
#        173794
#        184252
#        221988
#
# Disc length: 3443 seconds
#
# Revision: 1
# Processed by: cddbd v1.5.2PL0 Copyright (c) Steve Scherf et al.
# Submitted via: ExactAudioCopy v0.95b4
#
DISCID=d30d7110
DTITLE=Nicko Christiansen - Blues A Lone
DYEAR=2004
DGENRE=Blues
TTITLE0=01  house of the risin' sun
TTITLE1=02  one night blues
TTITLE2=03  hell's session
TTITLE3=04  go go train
TTITLE4=05  jimmy
TTITLE5=06  lucky old sun
TTITLE6=07  rock island line
TTITLE7=08  my sister kate
TTITLE8=09  whiskey and gin
TTITLE9=10  when i was a cowboy
TTITLE10=11  dreamin
TTITLE11=12  dreams and secrets
TTITLE12=13  evil in the city
TTITLE13=14  blues alone
TTITLE14=15 too  many chiefs
TTITLE15=16  jungle blues
EXTD=YEAR: 2004
EXTT0=
EXTT1=
EXTT2=
EXTT3=
EXTT4=
EXTT5=
EXTT6=
EXTT7=
EXTT8=
EXTT9=
EXTT10=
EXTT11=
EXTT12=
EXTT13=
EXTT14=
EXTT15=
PLAYORDER=
